<?xml version="1.0" standalone="no"?>
<!DOCTYPE svg PUBLIC "-//W3C//DTD SVG 20010904//EN"
 "http://www.w3.org/TR/2001/REC-SVG-20010904/DTD/svg10.dtd">
<svg version="1.0" xmlns="http://www.w3.org/2000/svg"
 width="1200.000000pt" height="1200.000000pt" viewBox="0 0 1200.000000 1200.000000"
 preserveAspectRatio="xMidYMid meet">

<g transform="translate(0.000000,1200.000000) scale(0.100000,-0.100000)"
fill="#000000" stroke="none">
<path d="M2717 9422 c-620 -1032 -1128 -1881 -1128 -1887 -1 -5 507 -855 1128
-1887 l1128 -1877 2264 2 2264 2 1028 1855 c566 1020 1035 1866 1042 1880 14
24 -21 90 -1027 1905 l-1042 1880 -2265 2 -2264 2 -1128 -1877z m6478 -135
l970 -1752 -85 -153 c-69 -126 -86 -150 -96 -138 -6 9 -389 707 -850 1551
l-839 1535 -1950 0 -1950 -1 -965 -1630 c-536 -905 -965 -1639 -964 -1652 0
-12 399 -695 887 -1517 l887 -1495 -122 -3 c-89 -2 -125 1 -134 10 -18 20
-2097 3482 -2097 3493 0 8 1979 3308 2080 3468 l23 37 2118 0 2117 -1 970
-1752z m-229 -717 c453 -828 823 -1511 824 -1518 0 -14 -152 -301 -160 -302
-3 0 -338 629 -746 1398 l-741 1397 -1614 2 -1614 3 -805 -1401 c-443 -771
-804 -1404 -803 -1408 1 -4 351 -614 777 -1355 427 -742 776 -1351 776 -1353
0 -2 -73 -2 -161 -1 l-162 3 -893 1508 -894 1507 897 1515 898 1515 1799 -3
1799 -2 823 -1505z m-301 -555 l673 -1270 -40 -78 c-23 -43 -44 -75 -49 -70
-4 4 -273 510 -598 1123 l-590 1115 -1348 2 -1348 2 -660 -1149 c-363 -633
-664 -1161 -669 -1174 -8 -21 77 -173 645 -1162 360 -626 656 -1141 657 -1146
2 -5 -60 -7 -138 -6 l-142 3 -725 1260 c-399 693 -727 1265 -730 1271 -3 9
954 1686 1399 2452 l60 102 1465 -2 1465 -3 673 -1270z m-208 -473 l552 -1043
-31 -56 c-26 -46 -33 -53 -42 -40 -6 8 -225 411 -486 896 l-475 881 -1111 0
-1111 0 -554 -946 c-305 -521 -553 -949 -552 -953 1 -3 245 -421 542 -929 298
-508 541 -927 541 -933 0 -6 -42 -9 -107 -7 l-108 3 -597 1040 c-351 610 -596
1046 -592 1055 3 8 272 479 597 1047 l592 1032 1194 -2 1195 -2 553 -1043z
m-453 -60 c115 -213 307 -569 427 -792 l219 -405 -39 -74 -38 -73 -104 193
c-56 107 -221 415 -364 684 l-262 490 -859 2 -859 3 -425 -736 c-234 -405
-424 -739 -423 -743 1 -4 173 -303 382 -665 210 -361 381 -659 381 -662 0 -2
-26 -4 -57 -4 l-58 0 -455 776 c-250 427 -459 784 -463 794 -7 13 100 204 455
809 l463 791 935 0 935 0 209 -388z m-69 -882 l301 -565 -30 -57 c-17 -32 -33
-58 -36 -58 -3 1 -123 227 -267 503 l-261 502 -589 2 -588 3 -289 -512 c-261
-461 -288 -514 -279 -537 5 -14 130 -237 276 -495 147 -258 267 -473 267 -478
0 -5 -26 -8 -57 -6 l-57 3 -327 565 c-180 311 -326 567 -324 570 21 38 631
1091 641 1108 l15 22 651 -2 651 -3 302 -565z m-343 -327 c211 -404 199 -381
190 -387 -5 -3 -78 121 -163 275 l-154 279 -365 0 -365 0 -183 -304 c-100
-167 -182 -309 -182 -316 0 -6 79 -143 175 -304 96 -162 175 -297 175 -301 0
-3 -12 -5 -26 -3 -23 3 -50 45 -220 346 l-194 342 151 268 c83 147 172 302
196 345 l45 77 377 0 378 0 165 -317z m-254 -318 l74 -135 -74 -135 -73 -135
-170 0 -170 0 -75 128 c-41 69 -75 134 -75 142 0 8 34 73 75 142 l75 128 170
0 170 0 73 -135z"/>
<path d="M5013 10484 c-8 -21 13 -42 28 -27 13 13 5 43 -11 43 -6 0 -13 -7
-17 -16z"/>
</g>
</svg>
